<?xml version="1.0" standalone="no"?>
<!DOCTYPE svg PUBLIC "-//W3C//DTD SVG 20010904//EN"
 "http://www.w3.org/TR/2001/REC-SVG-20010904/DTD/svg10.dtd">
<svg version="1.0" xmlns="http://www.w3.org/2000/svg"
 width="200.000000pt" height="200.000000pt" viewBox="0 0 200.000000 200.000000"
 preserveAspectRatio="xMidYMid meet">

<g transform="translate(0.000000,200.000000) scale(0.100000,-0.100000)"
fill="#000000" stroke="none">
<path d="M839 1792 c-8 -13 -20 -17 -40 -14 -24 3 -29 1 -29 -16 0 -24 34 -69
59 -77 12 -3 21 -19 25 -40 7 -36 64 -94 94 -96 9 -1 -12 -7 -48 -15 -89 -19
-198 -75 -263 -134 -30 -28 -61 -50 -68 -50 -45 -2 -99 -65 -99 -115 0 -79 28
-95 91 -52 47 32 61 62 55 124 -4 52 -4 53 39 91 43 38 120 84 162 96 21 7 22
6 7 -23 -18 -36 -12 -51 22 -51 49 0 87 72 47 88 -51 20 142 27 222 8 l50 -11
-56 -13 c-94 -21 -191 -100 -214 -173 -4 -10 -15 -19 -25 -19 -32 0 -67 -21
-79 -47 -15 -32 -15 -33 14 -33 18 0 28 -7 35 -25 11 -29 22 -31 40 -10 9 11
17 12 30 5 31 -17 40 -11 40 24 0 23 -8 42 -26 59 l-26 26 26 45 c54 93 151
143 257 133 68 -6 125 -36 182 -95 l39 -39 -52 13 c-60 15 -134 5 -184 -25
-17 -10 -46 -22 -63 -26 -43 -9 -75 -50 -71 -89 3 -27 6 -31 32 -29 42 3 76
39 76 80 0 31 4 36 53 58 59 28 130 32 180 11 43 -17 100 -84 117 -136 l13
-40 143 0 c84 0 145 4 149 10 4 6 -44 10 -137 10 l-144 0 -31 63 c-17 34 -53
89 -80 122 -63 75 -83 114 -83 160 0 27 4 35 18 35 50 1 91 85 63 129 -13 21
-68 -4 -86 -39 -15 -29 -11 -159 7 -192 12 -24 5 -23 -44 8 -55 35 -138 63
-222 75 -117 16 -171 49 -191 117 -5 16 -2 22 10 22 25 0 65 46 65 76 0 23 -3
26 -25 21 -18 -3 -29 1 -36 14 -12 24 -26 24 -40 1z m555 -127 c7 -18 -2 -44
-22 -67 -20 -24 -35 -23 -22 1 17 33 11 47 -10 21 -17 -22 -20 -23 -20 -6 0
22 37 66 56 66 6 0 14 -7 18 -15z m-494 -183 c0 -14 -24 -39 -45 -45 -18 -6
-17 -5 3 9 32 23 27 40 -5 19 l-28 -18 19 21 c18 21 56 30 56 14z m-360 -191
c-12 -17 -20 -39 -18 -48 2 -11 15 2 38 38 l35 54 3 -39 c4 -48 -13 -83 -50
-102 -48 -25 -58 -19 -58 32 0 37 5 51 30 76 38 37 50 30 20 -11z m546 -23
c-24 -34 -19 -44 9 -18 25 23 25 23 25 2 0 -21 -34 -52 -57 -52 -20 0 -15 48
7 70 27 27 35 25 16 -2z"/>
<path d="M1056 1674 c-13 -34 -6 -75 19 -99 31 -32 53 -32 65 1 13 34 3 70
-27 94 -31 24 -49 25 -57 4z m54 -24 c11 -11 20 -30 20 -42 -1 -22 -2 -21 -16
5 -8 15 -19 27 -24 27 -14 0 -13 -6 6 -43 l17 -32 -22 19 c-13 12 -21 31 -21
53 0 38 11 42 40 13z"/>
<path d="M900 1655 c-10 -13 -10 -19 5 -35 23 -25 67 -26 89 -1 16 17 16 20 1
35 -21 20 -79 21 -95 1z m79 -8 c15 -19 4 -27 -33 -26 l-31 1 30 8 30 7 -25
11 c-23 10 -23 11 -4 11 12 1 27 -5 33 -12z"/>
<path d="M787 1610 c-37 -29 -38 -80 -3 -80 47 0 89 90 45 98 -8 1 -27 -7 -42
-18z m13 -19 c-16 -30 -12 -36 10 -16 21 19 28 7 8 -13 -13 -13 -48 -16 -48
-4 0 9 29 52 36 52 3 0 0 -9 -6 -19z"/>
<path d="M1197 1593 c-25 -24 27 -69 68 -59 30 8 32 26 7 49 -19 17 -63 23
-75 10z m53 -14 c12 -8 10 -9 -7 -4 -23 6 -33 -9 -13 -18 6 -3 5 -4 -2 -3 -17
4 -23 36 -6 36 7 0 20 -5 28 -11z"/>
<path d="M1336 1535 c-12 -33 24 -85 61 -85 19 0 23 5 23 30 0 49 -68 95 -84
55z m74 -56 c0 -16 -17 -18 -38 -3 -12 8 -22 22 -22 31 0 11 5 9 20 -8 21 -26
26 -20 9 14 -10 21 -9 21 10 -2 12 -13 21 -27 21 -32z"/>
<path d="M493 1505 c-36 -15 -40 -30 -18 -61 31 -45 124 -56 156 -18 18 21 -7
63 -48 81 -40 16 -49 16 -90 -2z m98 -25 l24 -20 -49 7 c-60 8 -57 -12 4 -22
47 -8 44 -25 -5 -25 -22 0 -44 9 -62 25 -27 24 -28 25 -9 40 27 21 69 19 97
-5z"/>
<path d="M1095 1431 c-10 -16 18 -61 41 -67 29 -7 56 -2 61 12 7 21 -37 64
-67 64 -16 0 -31 -4 -35 -9z m35 -22 c0 -7 8 -18 18 -26 15 -13 14 -13 -7 -1
-27 16 -39 38 -22 38 6 0 11 -5 11 -11z m41 -6 c13 -15 12 -15 -8 -4 -24 12
-29 21 -14 21 5 0 15 -7 22 -17z"/>
<path d="M666 1354 c-18 -48 1 -96 46 -113 30 -11 38 0 38 54 0 51 -69 99 -84
59z m64 -43 c7 -18 8 -36 3 -45 -8 -14 -11 -14 -31 0 -12 8 -22 25 -21 37 l0
22 11 -22 c11 -24 28 -31 28 -12 0 6 -5 19 -10 30 -6 10 -7 19 -2 19 5 0 15
-13 22 -29z"/>
<path d="M946 1352 c-14 -13 -5 -70 13 -86 42 -38 80 8 47 58 -14 23 -50 39
-60 28z m52 -68 l-3 -29 -22 23 c-13 12 -23 27 -23 33 0 6 9 1 21 -12 l20 -24
-6 30 c-5 23 -4 27 5 19 6 -6 10 -24 8 -40z"/>
<path d="M1174 1285 c-10 -41 36 -95 72 -81 34 13 9 79 -36 94 -27 10 -30 9
-36 -13z m66 -46 c0 -23 -13 -24 -34 -3 -23 23 -20 30 4 9 16 -14 20 -15 20
-4 0 8 -6 21 -12 29 -11 12 -10 12 5 1 9 -7 17 -22 17 -32z"/>
<path d="M205 1170 c-4 -6 38 -10 119 -10 77 0 126 4 126 10 0 6 -46 10 -119
10 -69 0 -122 -4 -126 -10z"/>
<path d="M833 1086 c13 -11 17 -29 17 -90 0 -59 3 -76 14 -76 8 0 18 5 21 10
3 6 1 10 -4 10 -7 0 -11 30 -11 80 l0 80 -27 0 c-25 -1 -26 -2 -10 -14z"/>
<path d="M1252 1052 c-8 -17 -9 -28 -2 -30 5 -2 10 -26 10 -53 0 -50 7 -57 44
-43 23 9 20 26 -4 19 -18 -6 -20 -2 -20 33 0 32 4 41 23 47 l22 8 -22 4 c-15
3 -23 12 -23 24 0 27 -13 23 -28 -9z"/>
<path d="M685 1032 c3 -8 5 -47 5 -88 0 -43 4 -74 10 -74 6 0 10 13 10 30 0
28 2 29 30 23 56 -11 92 53 57 101 -17 23 -121 30 -112 8z m101 -38 c12 -47
-44 -75 -66 -34 -7 14 -8 26 0 39 19 37 56 34 66 -5z"/>
<path d="M941 1034 c-14 -10 -21 -26 -21 -49 0 -48 21 -64 81 -63 49 1 72 14
51 27 -6 3 -12 26 -14 50 -3 42 -4 44 -39 47 -21 1 -45 -4 -58 -12z m63 -23
c21 -24 14 -57 -15 -66 -42 -14 -69 52 -31 74 24 14 26 14 46 -8z"/>
<path d="M1142 1041 c-7 -4 -25 -6 -40 -3 -22 4 -25 2 -14 -9 6 -7 12 -35 12
-61 0 -34 4 -48 14 -48 10 0 12 11 9 44 -5 38 -2 46 16 56 36 19 54 -4 46 -58
-6 -39 -5 -44 10 -38 9 3 18 6 20 6 12 0 -11 88 -27 103 -23 19 -28 20 -46 8z"/>
<path d="M205 830 c-4 -6 44 -10 137 -10 l143 0 27 -58 c15 -31 53 -88 84
-127 94 -116 108 -175 50 -199 -42 -18 -58 -45 -54 -94 4 -50 36 -55 78 -14
29 29 30 33 26 109 -2 43 -7 86 -11 97 -9 21 -12 22 76 -22 43 -22 100 -39
172 -52 115 -21 157 -37 181 -72 22 -31 20 -65 -3 -73 -25 -8 -47 -35 -55 -68
-6 -26 -5 -28 21 -25 19 2 34 -4 45 -17 15 -19 17 -19 35 -2 11 9 32 17 46 17
20 0 27 5 27 19 0 24 -47 81 -66 81 -8 0 -14 10 -14 25 0 28 -51 91 -83 101
-16 5 -4 11 50 25 91 23 175 66 237 120 27 24 68 51 90 59 67 25 105 109 80
174 -12 31 -63 19 -107 -24 -39 -40 -40 -41 -34 -100 l5 -60 -41 -36 c-45 -38
-127 -87 -166 -99 -23 -7 -23 -7 -7 16 27 39 21 59 -17 59 -52 0 -88 -55 -56
-87 18 -18 -108 -26 -187 -12 l-69 12 45 12 c97 25 177 88 211 163 10 22 21
32 36 32 32 0 88 52 80 73 -4 10 -15 17 -25 17 -11 0 -26 10 -35 23 -14 21
-16 21 -33 5 -16 -14 -22 -15 -38 -3 -26 19 -36 10 -36 -31 0 -24 8 -43 25
-60 21 -21 23 -28 14 -47 -48 -90 -152 -157 -244 -157 -66 0 -154 42 -210 101
-31 32 -34 39 -15 28 46 -23 138 -17 201 14 31 15 63 27 72 27 8 0 30 12 47
26 26 22 31 33 28 63 -2 28 -8 37 -25 39 -33 5 -84 -46 -85 -84 -1 -26 -8 -36
-38 -53 -79 -44 -181 -36 -244 20 -19 16 -45 54 -57 84 l-23 55 -142 0 c-85 0
-145 -4 -149 -10z m1305 -56 c0 -37 -5 -51 -30 -76 -37 -36 -50 -31 -23 9 31
44 34 51 24 57 -5 3 -24 -18 -42 -46 l-34 -53 -3 39 c-4 47 13 82 48 101 47
26 60 20 60 -31z m-560 4 c0 -26 -7 -37 -35 -58 -19 -14 -20 -14 -2 6 17 20
23 44 11 44 -3 0 -14 -10 -25 -22 -16 -20 -18 -20 -19 -5 0 21 34 57 55 57 9
0 15 -9 15 -22z m184 -232 c-10 -8 -16 -18 -12 -22 4 -4 16 -1 25 7 16 13 17
12 4 -3 -16 -21 -41 -24 -41 -5 0 15 20 37 34 37 5 0 1 -6 -10 -14z m-487
-150 c-21 -31 -8 -43 15 -14 16 21 18 21 18 4 0 -23 -37 -66 -57 -66 -19 0
-16 60 4 82 24 26 38 22 20 -6z"/>
<path d="M1550 830 c0 -6 46 -10 119 -10 69 0 122 4 126 10 4 6 -38 10 -119
10 -77 0 -126 -4 -126 -10z"/>
<path d="M747 794 c-24 -25 19 -104 57 -104 26 0 31 48 9 78 -20 27 -52 39
-66 26z m47 -30 c23 -23 20 -30 -4 -9 -16 14 -20 15 -20 4 0 -8 6 -21 13 -29
10 -12 9 -12 -5 -1 -19 14 -25 51 -9 51 5 0 17 -7 25 -16z"/>
<path d="M1251 742 c-14 -33 -4 -67 27 -95 29 -26 56 -18 60 17 6 46 -6 75
-38 91 -37 19 -36 20 -49 -13z m66 -43 l3 -24 -12 23 c-21 42 -38 22 -17 -21
9 -20 8 -20 -11 2 -11 13 -18 31 -15 38 3 8 5 19 5 25 0 21 45 -20 47 -43z"/>
<path d="M984 735 c-9 -36 -2 -56 29 -78 32 -24 50 -14 50 28 0 51 -68 94 -79
50z m56 -27 c0 -6 -6 -5 -17 3 -15 13 -16 11 -9 -16 5 -22 4 -26 -4 -15 -5 8
-10 25 -10 38 0 20 3 21 20 12 11 -6 20 -16 20 -22z"/>
<path d="M818 643 c-24 -6 -23 -24 3 -57 15 -19 30 -26 55 -26 35 0 41 10 28
45 -5 13 -56 48 -66 44 -2 -1 -11 -3 -20 -6z m72 -54 c0 -5 -5 -9 -12 -9 -6 0
-8 3 -5 7 4 3 1 13 -6 22 -11 14 -10 14 6 2 9 -7 17 -17 17 -22z m-35 1 c3 -5
2 -10 -4 -10 -5 0 -13 5 -16 10 -3 6 -2 10 4 10 5 0 13 -4 16 -10z"/>
<path d="M1380 582 c-29 -24 -20 -56 23 -83 39 -23 68 -24 107 -4 38 19 38 39
1 76 -35 35 -95 40 -131 11z m117 -27 c27 -24 28 -25 9 -40 -27 -21 -69 -19
-97 5 l-24 20 48 -7 c61 -8 63 12 2 22 -51 7 -51 25 0 25 22 0 44 -9 62 -25z"/>
<path d="M586 552 c-14 -13 -4 -64 15 -83 25 -25 63 -22 67 7 5 36 -61 98 -82
76z m54 -44 c11 -22 10 -22 -4 -4 -21 26 -34 11 -17 -17 13 -20 13 -21 -2 -8
-21 17 -22 51 -2 51 8 0 19 -10 25 -22z"/>
<path d="M721 461 c-31 -20 26 -75 67 -64 27 7 29 34 4 56 -20 19 -49 22 -71
8z m64 -40 c-3 -6 -11 -11 -16 -11 -5 0 -4 6 3 14 14 16 24 13 13 -3z"/>
<path d="M1171 446 c-14 -15 -21 -33 -19 -48 7 -54 88 -16 88 42 0 25 -4 30
-23 30 -13 0 -34 -11 -46 -24z m49 -15 c0 -11 -4 -22 -9 -25 -5 -4 -7 3 -4 14
6 24 -12 27 -21 4 -4 -9 -9 -14 -13 -11 -8 9 17 37 33 37 8 0 14 -9 14 -19z"/>
<path d="M860 431 c-17 -33 -11 -61 19 -92 47 -46 71 -35 71 32 0 32 -38 79
-64 79 -9 0 -20 -9 -26 -19z m70 -68 c0 -18 -4 -33 -10 -33 -18 0 -50 40 -50
63 1 21 2 20 16 -5 8 -16 19 -28 24 -28 14 0 13 6 -6 43 l-17 32 22 -19 c13
-12 21 -31 21 -53z"/>
<path d="M1005 386 c-39 -29 24 -79 72 -57 51 23 32 71 -27 71 -14 0 -35 -6
-45 -14z m30 -16 c-3 -6 4 -14 17 -19 13 -6 17 -10 10 -10 -21 -1 -53 19 -47
30 4 5 11 9 16 9 6 0 7 -5 4 -10z m42 4 c-3 -3 -12 -4 -19 -1 -8 3 -5 6 6 6
11 1 17 -2 13 -5z"/>
</g>
</svg>
